<svg width="280" height="87" viewBox="0 0 280 87" fill="none" xmlns="http://www.w3.org/2000/svg">
<path d="M116.861 61.7653C124.675 61.7653 129.778 57.7734 132.172 49.7897C132.362 49.1566 132.004 48.489 131.373 48.2986C131.261 48.265 131.145 48.2479 131.029 48.2479H125.448C124.919 48.2479 124.453 48.5976 124.303 49.1069C123.228 52.769 120.747 54.6 116.861 54.6C110.976 54.6 107.78 50.7379 107.78 43.5727C107.78 36.4074 110.976 32.4945 116.861 32.4945C120.916 32.4945 123.392 34.406 124.291 38.2291C124.418 38.7696 124.899 39.1516 125.453 39.1516H131.144C131.803 39.1516 132.338 38.6156 132.338 37.9544C132.338 37.8676 132.328 37.781 132.31 37.6962C130.486 29.4177 125.336 25.2785 116.861 25.2785C105.446 25.2785 99.6626 33.3076 99.6626 43.5727C99.6626 53.6853 105.446 61.7653 116.861 61.7653ZM148.276 61.7653C156.901 61.7653 161.517 55.9721 161.517 48.0446C161.517 40.0663 156.799 34.2731 148.276 34.2731C139.752 34.2731 135.034 40.0663 135.034 48.0446C135.034 56.0229 139.651 61.7653 148.276 61.7653ZM148.276 54.9049C145.08 54.9049 142.999 52.8723 142.999 48.0446C142.999 43.2678 145.029 41.1335 148.276 41.1335C151.523 41.1335 153.552 43.217 153.552 48.0446C153.552 52.8723 151.523 54.9049 148.276 54.9049ZM188.934 50.6871V35.9276C188.934 35.2665 188.399 34.7305 187.74 34.7305H182.315C181.655 34.7305 181.121 35.2665 181.121 35.9276V49.5183C181.121 52.5674 179.852 54.3968 176.808 54.3968C173.714 54.3968 172.445 52.5674 172.445 49.5183V35.9276C172.445 35.2665 171.911 34.7305 171.251 34.7305H165.826C165.167 34.7305 164.632 35.2665 164.632 35.9276V50.6871C164.632 56.2714 168.013 61.6565 176.499 61.7637L176.758 61.7653H176.808C185.484 61.7653 188.934 56.3278 188.934 50.6871ZM201.475 60.1108V46.5709C201.475 43.3694 203.504 41.3875 206.295 41.3875C209.39 41.3875 210.759 43.217 210.759 46.266V60.1108C210.759 60.7719 211.294 61.3079 211.953 61.3079H217.379C218.038 61.3079 218.572 60.7719 218.572 60.1108V43.8268C218.572 37.932 214.615 34.2731 208.73 34.2731C205.28 34.2731 202.946 35.5436 201.475 37.2713H201.272L200.883 35.648C200.754 35.1098 200.274 34.7305 199.722 34.7305H194.856C194.196 34.7305 193.662 35.2665 193.662 35.9276V60.1108C193.662 60.7719 194.196 61.3079 194.856 61.3079H200.281C200.941 61.3079 201.475 60.7719 201.475 60.1108ZM231.701 61.7653C232.568 61.7653 233.435 61.7653 234.303 61.7653C234.84 61.7653 235.311 61.4051 235.454 60.8854L236.664 56.4702C236.839 55.8326 236.465 55.1738 235.829 54.9986C235.726 54.9702 235.62 54.9558 235.513 54.9558C234.867 54.9558 234.374 54.9558 234.035 54.9558C231.701 54.9558 230.636 53.8886 230.636 51.3986V41.3875H235.784C236.443 41.3875 236.977 40.8516 236.977 40.1904V35.9276C236.977 35.2665 236.443 34.7305 235.784 34.7305H230.636V29.3238C230.636 28.6627 230.101 28.1267 229.442 28.1267C229.339 28.1267 229.236 28.1401 229.136 28.1666L223.711 29.6069C223.187 29.7459 222.823 30.221 222.823 30.7641V41.3875V53.2788C222.823 58.1064 225.562 61.7653 231.701 61.7653ZM249.367 60.1108V24.9003C249.367 24.2391 248.832 23.7031 248.173 23.7031H242.747C242.088 23.7031 241.553 24.2391 241.553 24.9003V60.1108C241.553 60.7719 242.088 61.3079 242.747 61.3079H248.173C248.832 61.3079 249.367 60.7719 249.367 60.1108ZM265.218 75.6174L279.927 35.4384C279.975 35.3063 280 35.1666 280 35.0259V34.9846C280 34.8442 279.886 34.7305 279.746 34.7305H272.793C272.275 34.7305 271.815 35.066 271.657 35.5608L266.124 52.7948L260.533 35.5573C260.373 35.0643 259.914 34.7305 259.397 34.7305H252.502C252.362 34.7305 252.248 34.8442 252.248 34.9846V35.0217C252.248 35.1652 252.274 35.3075 252.324 35.4418L261.839 60.9049C261.936 61.1654 261.94 61.4518 261.849 61.7149L257.349 74.815C257.134 75.4401 257.465 76.1214 258.089 76.3368C258.214 76.38 258.345 76.4021 258.478 76.4021H264.098C264.598 76.4021 265.046 76.0888 265.218 75.6174Z" fill="#212020"/>
<mask id="mask0_6395_2950" style="mask-type:alpha" maskUnits="userSpaceOnUse" x="6" y="5" width="77" height="77">
<path d="M75.4388 44.7525C79.3593 44.7474 82.5416 47.9301 82.5468 51.8613C82.547 52.0506 82.5397 52.2398 82.5249 52.4284C81.3465 67.4631 79.6761 75.6654 77.5137 77.0353C73.1315 79.8116 64.9235 81.4065 52.8897 81.8203C49.3278 81.9427 46.3412 79.1465 46.2191 75.5747C46.2166 75.5009 46.2153 75.4269 46.2153 75.353V50.6074C46.2153 47.3939 48.811 44.7877 52.0156 44.7834L75.4388 44.7525ZM43.58 11.4994C43.5825 11.5733 43.5837 11.6472 43.5837 11.7211V74.3836C43.5837 78.3149 40.4056 81.5018 36.4852 81.5018C36.37 81.5018 36.2548 81.499 36.1397 81.4934C24.1604 80.9082 16.2089 79.3541 12.2853 76.8312C5.25577 72.3112 4.56087 14.9324 12.2853 10.0388C16.6675 7.26259 24.8755 5.66761 36.9093 5.25387C40.4713 5.13141 43.4578 7.92763 43.58 11.4994ZM46.2191 11.4994C46.3412 7.92763 49.3278 5.13141 52.8897 5.25387C64.9235 5.66761 73.1315 7.26259 77.5137 10.0388C79.6761 11.4087 81.3465 19.611 82.5249 34.6457C82.5397 34.8344 82.547 35.0236 82.5468 35.2128C82.5416 39.1441 79.3593 42.3268 75.4388 42.3216L52.0156 42.2907C48.811 42.2865 46.2153 39.6802 46.2153 36.4667V11.7211C46.2153 11.6472 46.2166 11.5733 46.2191 11.4994Z" fill="white"/>
</mask>
<g mask="url(#mask0_6395_2950)">
<path d="M75.4388 44.7525C79.3593 44.7474 82.5416 47.9301 82.5468 51.8613C82.547 52.0506 82.5397 52.2398 82.5249 52.4284C81.3465 67.4631 79.6761 75.6654 77.5137 77.0353C73.1315 79.8116 64.9235 81.4065 52.8897 81.8203C49.3278 81.9427 46.3412 79.1465 46.2191 75.5747C46.2166 75.5009 46.2153 75.4269 46.2153 75.353V50.6074C46.2153 47.3939 48.811 44.7877 52.0156 44.7834L75.4388 44.7525ZM43.58 11.4994C43.5825 11.5733 43.5837 11.6472 43.5837 11.7211V74.3836C43.5837 78.3149 40.4056 81.5018 36.4852 81.5018C36.37 81.5018 36.2548 81.499 36.1397 81.4934C24.1604 80.9082 16.2089 79.3541 12.2853 76.8312C5.25577 72.3112 4.56087 14.9324 12.2853 10.0388C16.6675 7.26259 24.8755 5.66761 36.9093 5.25387C40.4713 5.13141 43.4578 7.92763 43.58 11.4994ZM46.2191 11.4994C46.3412 7.92763 49.3278 5.13141 52.8897 5.25387C64.9235 5.66761 73.1315 7.26259 77.5137 10.0388C79.6761 11.4087 81.3465 19.611 82.5249 34.6457C82.5397 34.8344 82.547 35.0236 82.5468 35.2128C82.5416 39.1441 79.3593 42.3268 75.4388 42.3216L52.0156 42.2907C48.811 42.2865 46.2153 39.6802 46.2153 36.4667V11.7211C46.2153 11.6472 46.2166 11.5733 46.2191 11.4994Z" fill="#3EBB60"/>
<path fill-rule="evenodd" clip-rule="evenodd" d="M74.1894 56.3877C74.9023 56.3877 75.4801 56.9671 75.4801 57.6819V63.3557C75.4801 63.7468 75.3038 64.1169 75.0003 64.3626L71.1553 67.4764C71.0157 67.5894 70.9011 67.7304 70.8189 67.8903C70.4923 68.5256 70.7412 69.3061 71.3748 69.6336C73.3604 70.6599 74.7288 71.8627 75.4801 73.2419C76.3229 74.7892 76.6852 76.6838 76.5669 78.9257C76.5359 79.5132 76.1136 80.0058 75.5391 80.1248L67.9294 81.7009C68.3774 78.9182 67.8172 76.9017 66.2486 75.6513C64.8577 74.5425 62.1994 74.417 58.2738 75.2747C58.1836 75.2944 58.0914 75.3044 57.9991 75.3044C57.2863 75.3044 56.7084 74.725 56.7084 74.0102V70.2099C56.7084 69.8332 56.8721 69.4751 57.1568 69.2293L63.242 63.9741H54.0593C53.3465 63.9741 52.7687 63.3947 52.7687 62.6799V57.6819C52.7687 56.9671 53.3465 56.3877 54.0593 56.3877H74.1894ZM32.9297 29.3896C32.9752 29.6076 32.9981 29.8296 32.9981 30.0523V57.9487C32.9981 59.7356 31.5535 61.1842 29.7715 61.1842H27.2824C25.5003 61.1842 24.0557 59.7356 24.0557 57.9487L24.0555 36.5378L20.8639 37.2078C19.1196 37.5738 17.4097 36.4526 17.0447 34.7035C16.9992 34.4856 16.9763 34.2635 16.9763 34.0408V32.0602C16.9763 30.5287 18.0471 29.2069 19.542 28.8933L29.1106 26.8854C30.8548 26.5194 32.5647 27.6405 32.9297 29.3896ZM63.6272 1.21232C67.8353 0.797484 70.985 0.852288 73.0765 1.37673C73.4236 1.46378 73.7191 1.69142 73.8925 2.00531L73.9878 2.18033C75.6462 5.26928 75.9581 8.19454 74.9233 10.9561C73.8164 13.9103 70.7601 17.9749 65.7544 23.15H74.1505C74.8633 23.15 75.4411 23.7294 75.4411 24.4442V29.3437C75.4411 30.0584 74.8633 30.6379 74.1505 30.6379H54.3427C53.6299 30.6379 53.0521 30.0584 53.0521 29.3437V25.7509C53.0521 24.6582 53.5113 23.6161 54.3169 22.8803C58.5818 18.9854 61.6852 15.928 63.6272 13.7081C66.8208 10.0574 68.0924 9.2011 67.7244 7.4138C67.6193 6.90288 66.5442 6.4901 64.4169 6.18785C63.1174 6.0032 61.2596 4.68443 58.8435 2.23154C58.7906 2.17789 58.734 2.12967 58.6743 2.087L58.6318 2.05843L58.7762 2.02195C60.1652 1.67789 61.6732 1.41919 63.3002 1.24585L63.6272 1.21232ZM58.6137 2.04618L58.6318 2.05843L58.5 2.0919C57.4015 2.37625 56.3791 2.71523 55.4329 3.10885C55.4165 3.11568 55.3977 3.10786 55.3908 3.09138C55.3845 3.07615 55.3907 3.05861 55.4051 3.05068L57.3047 2.00621C57.7223 1.77658 58.2236 1.79941 58.6137 2.04618Z" fill="#FCFFFC"/>
</g>
</svg>
